<?xml version="1.0" encoding="UTF-8" standalone="no"?>
<!-- Created with Inkscape (http://www.inkscape.org/) -->

<svg
   version="1.1"
   id="svg9"
   width="201.60001"
   height="215.67999"
   viewBox="0 0 201.60001 215.67999"
   xmlns="http://www.w3.org/2000/svg">
  <defs
     id="defs13" />
  <g
     id="g15">
    <g
       id="g380">
      <path
         style="display:inline;fill:#fdd500;stroke-width:0.32"
         d="M 4.0925861e-6,110.66998 V 5.8699899 H 9.1200046 18.240005 V 2.8276037 -0.2147825 l 20.218011,0.0823864 20.21801,0.08238636 33.073192,46.71999774 c 38.576672,54.494352 40.389042,57.075112 48.090902,68.479992 3.20908,4.752 5.73124,8.208 5.60481,7.68 -0.12644,-0.528 -0.30112,-27.059994 -0.38817,-58.959993 L 144.89848,5.8699899 h 9.15076 9.15077 V 2.8299901 -0.21000976 h 19.2 19.2 V 104.58999 209.38998 h -9.12 -9.12 v 3.04 3.04 h -20.08653 -20.08652 l -37.11344,-52.4 c -20.412398,-28.82 -39.898454,-56.57599 -43.302348,-61.67999 -3.403895,-5.104004 -6.211908,-9.304039 -6.240032,-9.333415 -0.02813,-0.02938 -0.0077,26.358615 0.04535,58.639995 l 0.09649,58.69341 H 47.536494 38.40001 v 3.04 3.04 H 19.200005 4.0925861e-6 Z"
         id="path294" />
      <path
         style="display:inline;fill:#105072;stroke-width:0.32"
         d="M 18.240005,104.58999 V -0.21000976 l 20.080001,0.008049 20.080001,0.008049 31.840001,45.00802376 c 40.051982,56.616228 41.506792,58.687048 48.176652,68.575868 8.1473,12.07931 17.07861,26.24948 23.04057,36.55553 1.72925,2.98923 2.72194,4.39696 3.10278,4.4 0.69813,0.006 0.69641,0.29145 0.0828,-13.82061 -0.26248,-6.0362 -0.63756,-15.00692 -0.83352,-19.93492 -0.20646,-5.19231 -0.42277,-32.474392 -0.51441,-64.879994 l -0.15816,-55.91999655 h 19.23165 19.23164 V 104.58999 209.38998 l -20.08,-0.0161 -20.08,-0.0161 -15.08023,-21.34394 C 138.06565,176.27476 121.58881,152.98998 109.74457,136.26998 87.529423,104.90981 81.412613,96.052421 74.386468,85.069986 69.786228,77.879436 62.168244,65.475577 58.400356,59.040861 56.0776,55.074103 55.312112,54.131216 54.816666,54.626659 c -0.107654,0.107658 -0.02346,3.977447 0.187091,8.599533 1.345501,29.536075 1.378016,31.41797 1.539795,89.123788 l 0.159914,57.04 H 37.471734 18.240005 Z"
         id="path282" />
    </g>
  </g>
</svg>
